<svg id="Layer_1" data-name="Layer 1" xmlns="http://www.w3.org/2000/svg" viewBox="0 0 612 263.04">
  <defs>
    <style>
      .cls-1 {
        fill: #231f20;
      }

      .cls-1, .cls-2, .cls-3, .cls-4, .cls-5, .cls-6, .cls-7, .cls-8, .cls-9, .cls-10 {
        stroke-width: 0px;
      }

      .cls-2 {
        fill: #d7c19b;
      }

      .cls-3 {
        fill: none;
      }

      .cls-4 {
        fill: #010101;
      }

      .cls-5 {
        fill: #e4d6b3;
      }

      .cls-6 {
        fill: #221f1f;
      }

      .cls-7 {
        fill: #f6f7f8;
      }

      .cls-8 {
        fill: #020202;
      }

      .cls-9 {
        fill: #3491bf;
      }

      .cls-10 {
        fill: #444445;
      }
    </style>
  </defs>
  <g id="Layer_2" data-name="Layer 2">
    <g id="Layer_1-2" data-name="Layer 1-2">
      <path class="cls-7" d="M553.49,157.92c0-8.16-6.62-14.77-14.77-14.77-3.2,0-6.3,1.04-8.86,2.96h0l-1.83-1.12c-.94-.5-1.91-.96-2.9-1.36h-.09c-3.61-1.44-7.46-2.18-11.34-2.19-4.26-.02-8.47.96-12.28,2.87-4.05,1.98-7.48,5.02-9.92,8.8-2.62,4.05-3.98,8.77-3.91,13.59v.42l-12.76-24.07h-12.31l-15.36,28.83v-28.81h-25.23l-25.2-.15v15.1l-18.77-13.97-1.25-1.01h-40.93c23.82-8.44,41-31.99,41-59.65,0-34.73-27.09-62.96-60.41-62.96-25.31-.03-47.49,16.39-56.21,40.34-5.5-1.19-12.38-.83-20.55,3.17-5.41,2.64-7.67,9.16-5.03,14.58.35.72.78,1.41,1.29,2.04,2.01,2.55,4.37,4.79,7.02,6.66-2.26,5.23-3.06,10.97-2.31,16.61.67,6.08,6.14,10.46,12.22,9.79.74-.08,1.48-.24,2.19-.47,2.4-.76,4.71-1.77,6.89-3.02,3.5,7.85,8.57,14.9,14.91,20.72,5.94,5.42,12.92,9.58,20.51,12.23h-52.45v6.72c-2.4-1.68-4.99-3.07-7.72-4.14-4.51-1.77-9.31-2.67-14.15-2.64h-27.86v5.95c-1.12-.83-2.28-1.59-3.49-2.28h0c-11.4-6.49-25.38-6.49-36.79,0h0c-1.48.85-2.89,1.8-4.23,2.85-1.2-.98-2.47-1.89-3.79-2.7-10.86-6.7-24.57-6.7-35.43,0h0c-5.28,3.28-9.63,7.86-12.62,13.3-6.15,11.37-6.15,25.07,0,36.44,3,5.45,7.36,10.02,12.66,13.27,10.87,6.7,24.58,6.7,35.44,0,1.31-.82,2.57-1.71,3.76-2.69,1.36,1.05,2.8,2.01,4.29,2.87,12.69,7.23,28.45,6.3,40.2-2.37v6.04h27.86c7.81.04,15.45-2.33,21.87-6.78v6.78h77.34v-16.81l18.42,14.78,2.3,1.92h51.68v-16.73l8.25,6.6v32.06l9.71-.59c2.38-.13,4.75-.47,7.07-1.01h0c6.03-1.45,11.61-4.38,16.23-8.52,3.69-3.24,6.62-7.24,8.61-11.73h13.94l5.13-9.3h10.12l5.13,9.3h25.52c2.48.56,5.01.84,7.55.85,6.99.23,13.79-2.22,19.03-6.86,3.7-3.31,8.09-9.41,8.09-19.72.16-4.82-1.04-9.59-3.47-13.76l-1.51-2.27c7.7,2.69,16.12-1.38,18.81-9.08.55-1.57.83-3.22.82-4.89l-.11-.03Z"/>
      <path class="cls-3" d="M232.85,167.8c-2.95-2.9-6.93-4.53-11.07-4.53h-4.17v30.2h4.17c2.08,0,4.13-.41,6.04-1.22,1.86-.79,3.55-1.93,4.98-3.35,1.42-1.39,2.55-3.05,3.32-4.88.77-1.79,1.16-3.73,1.15-5.68-.01-1.98-.41-3.93-1.18-5.75-.77-1.78-1.88-3.41-3.25-4.79Z"/>
      <path class="cls-3" d="M180.62,165.07c-2.21-1.42-4.79-2.17-7.41-2.17-2.64-.01-5.22.74-7.43,2.17-2.27,1.42-4.14,3.4-5.42,5.75-1.31,2.3-2,4.9-1.99,7.55,0,2.65.7,5.26,2.04,7.55,1.27,2.36,3.12,4.35,5.38,5.8,4.51,2.9,10.29,2.9,14.8,0,2.27-1.45,4.13-3.44,5.44-5.8,2.68-4.68,2.68-10.42,0-15.1-1.29-2.34-3.14-4.32-5.39-5.75Z"/>
      <path class="cls-9" d="M135.92,191.66c-4.15,2.89-9.65,2.89-13.8,0-2.13-1.47-3.86-3.45-5.04-5.75-1.24-2.33-1.88-4.92-1.89-7.55,0-2.63.63-5.22,1.84-7.55,1.19-2.31,2.92-4.28,5.06-5.75,4.17-2.9,9.71-2.9,13.88,0,1.13.8,2.15,1.76,3.02,2.84l8.44-8.74c-1.63-1.76-3.49-3.28-5.53-4.53-7.92-4.87-17.92-4.87-25.84,0-3.95,2.46-7.21,5.89-9.45,9.97-4.61,8.61-4.61,18.96,0,27.58,2.24,4.07,5.5,7.49,9.45,9.92,7.92,4.87,17.92,4.87,25.84,0,2.07-1.29,3.96-2.85,5.6-4.65l-8.44-8.74c-.9,1.14-1.96,2.14-3.14,2.98Z"/>
      <path class="cls-9" d="M187.03,154.59c-13.19-7.55-30.01-3.11-37.75,9.97-2.47,4.18-3.76,8.95-3.73,13.8-.04,4.84,1.25,9.6,3.73,13.76,7.78,13.04,24.55,17.47,37.75,9.97,4.19-2.36,7.67-5.8,10.07-9.97,2.48-4.16,3.77-8.92,3.73-13.76.03-4.85-1.26-9.63-3.73-13.8-2.42-4.15-5.9-7.59-10.07-9.97ZM186.01,185.88c-1.3,2.35-3.17,4.35-5.44,5.8-4.51,2.9-10.29,2.9-14.8,0-2.25-1.45-4.1-3.44-5.38-5.8-1.34-2.29-2.04-4.9-2.04-7.55,0-2.65.68-5.25,1.99-7.55,1.28-2.35,3.15-4.34,5.42-5.75,2.21-1.43,4.79-2.19,7.43-2.17,2.63,0,5.2.75,7.41,2.17,2.26,1.45,4.11,3.44,5.39,5.8,2.68,4.68,2.68,10.42,0,15.1v-.05Z"/>
      <path class="cls-9" d="M242.56,159.65c-2.57-2.36-5.56-4.23-8.82-5.5-3.43-1.34-7.09-2.02-10.78-1.99h-18.68v52.36h18.68c3.67.02,7.32-.65,10.74-1.99,3.28-1.27,6.28-3.14,8.86-5.53,2.52-2.37,4.54-5.22,5.93-8.38,1.44-3.22,2.18-6.72,2.14-10.25.02-3.56-.71-7.09-2.14-10.34-1.4-3.16-3.42-6-5.93-8.37ZM236.13,184.04c-.77,1.83-1.9,3.49-3.32,4.88-1.43,1.43-3.12,2.57-4.98,3.35-1.91.81-3.96,1.23-6.04,1.22h-4.17v-30.2h4.17c4.14,0,8.12,1.63,11.07,4.53,1.37,1.38,2.47,3.01,3.25,4.8.77,1.82,1.17,3.78,1.18,5.75.01,1.95-.38,3.87-1.15,5.66Z"/>
      <polygon class="cls-9" points="253.98 204.57 287.23 204.57 287.23 193.53 266.83 193.53 266.83 183.43 280.18 183.43 277.19 172.39 266.83 172.39 266.83 163.32 287.23 163.32 287.23 152.2 253.98 152.2 253.98 204.57"/>
      <polygon class="cls-4" points="333.45 176.32 300.09 151.42 300.09 204.41 313.01 204.41 312.97 177.8 346.3 204.56 346.3 152.22 333.45 152.16 333.45 176.32"/>
      <polygon class="cls-4" points="352.97 204.51 365.82 204.56 365.82 152.22 352.97 152.22 352.97 204.51"/>
      <polygon class="cls-4" points="418.71 204.54 418.71 152.2 405.87 152.13 405.87 176.3 372.5 151.39 372.5 204.39 385.43 204.39 385.38 177.78 418.71 204.54"/>
      <path class="cls-4" d="M425.5,202.16h0c-.11.84-.27,1.68-.48,2.51-.76,2.34-2.14,4.42-3.99,6.04-1.91,1.7-4.2,2.91-6.67,3.53h-.74c-.53.11-1.06.2-1.63.27v11.28c1.85-.1,3.69-.35,5.5-.77,4.58-1.09,8.82-3.31,12.34-6.45,3.37-2.95,5.87-6.77,7.22-11.04.48-1.57.77-3.19.86-4.83h0v-50.47h-12.44l.05,49.93Z"/>
      <path class="cls-4" d="M439.78,204.51h13.24l5.13-9.29h20.98l5.12,9.29h13.26l-28.87-53.1-28.86,53.1ZM463.47,185.55l5.16-9.3,5.13,9.3h-10.3Z"/>
      <path class="cls-4" d="M526.96,177.95c-1.82-2.17-4.16-3.86-6.8-4.91-2.59-1.01-5.1-2.01-7.55-3.02-2.42-1.03-3.61-2.43-3.61-4.21-.02-1.23.61-2.38,1.66-3.02.98-.73,2.16-1.13,3.38-1.15,1.49-.03,2.96.3,4.29.97,1.47.82,2.82,1.84,4.02,3.02l6.31-9.06c-2.02-1.94-4.38-3.48-6.98-4.53-2.54-1-5.24-1.52-7.97-1.51-2.86-.02-5.68.64-8.23,1.92-2.57,1.25-4.75,3.19-6.3,5.6-1.66,2.57-2.51,5.58-2.45,8.64,0,4.3.94,7.54,2.81,9.71,1.83,2.15,4.14,3.84,6.75,4.91l1.96.8,1.92.79,3.76,1.51c2.43,1.06,3.65,2.48,3.65,4.27.05,1.43-.7,2.77-1.95,3.47-1.25.79-2.7,1.22-4.18,1.22-3.43.1-6.68-1.47-8.74-4.21l-6.98,10.01c2.12,2.06,4.66,3.65,7.45,4.65,2.79,1.01,5.74,1.52,8.71,1.51,4.69.18,9.27-1.44,12.81-4.53,3.37-3.02,5.06-7.32,5.06-12.91.02-4.36-.92-7.67-2.81-9.94Z"/>
      <path class="cls-2" d="M272.56,72.72c-.82,3.46-1.21,7.01-1.15,10.57h0c.07,3.55.47,7.09,1.18,10.57,14.58-1.43,29.22-2.11,43.87-2.04v-16.61c-14.67.04-29.33-.8-43.9-2.49Z"/>
      <path class="cls-5" d="M361.58,83.38h0c-.07-3.55-.47-7.09-1.19-10.57-14.56,1.83-29.23,2.67-43.9,2.54v16.61c13.03,0,28.06.54,43.79,2.11h.12c.86-3.5,1.25-7.09,1.18-10.69Z"/>
      <path class="cls-8" d="M316.46,29.56c-25.16,0-46.08,19.04-50.41,44.14-4.26-3.62-11.63-6.86-22.49-1.51-.86.42-1.22,1.46-.81,2.32.06.11.12.22.2.32,2.25,2.84,7.55,8.28,15.34,8.38-4.77,2.78-9.91,8.41-8.71,19.63.18,1.05,1.18,1.76,2.23,1.58.1-.02.2-.04.29-.07,3.84-1.22,11.48-4.65,13.71-12.84,3.76,25.82,25.01,45.59,50.64,45.59,28.29,0,51.22-24.09,51.22-53.82s-22.95-53.73-51.22-53.73ZM360.25,94.01c-15.75-1.51-30.78-2.1-43.79-2.11h0c-14.62-.07-29.24.61-43.79,2.04-.71-3.48-1.1-7.02-1.18-10.57h0c-.06-3.56.32-7.11,1.15-10.57,14.57,1.74,29.23,2.62,43.9,2.63h0c14.67.14,29.34-.71,43.9-2.54.72,3.48,1.12,7.02,1.19,10.57h0c.07,3.56-.32,7.11-1.16,10.57h-.12l-.09-.02Z"/>
      <path class="cls-10" d="M275.74,104.57s10.25,23.82,35.87,26.64c11.49,1.18,22.98-2.23,31.99-9.47,0,0-41.76,16.46-67.85-17.17Z"/>
      <path class="cls-10" d="M356.66,62.83s-10.27-23.82-35.87-26.62c-11.48-1.16-22.95,2.24-31.94,9.47,0,0,41.7-16.51,67.81,17.16Z"/>
      <path class="cls-8" d="M302.23,82.22l-16.4-1.95c-.49-.09-.97.23-1.06.72-.05.28.03.58.23.79,6.37,7.63,14.15,4.12,17.56,1.96.38-.23.51-.74.27-1.12-.14-.22-.37-.37-.64-.39l.03-.02Z"/>
      <path class="cls-8" d="M330.35,83.72c3.41,2.16,11.19,5.66,17.56-1.96.34-.36.32-.94-.04-1.28-.21-.2-.51-.28-.79-.23l-16.37,1.95c-.45.03-.79.43-.75.87.02.26.16.5.39.64v.02Z"/>
      <path class="cls-6" d="M546.14,157.92c-.02,4.09-3.34,7.39-7.43,7.37-4.09-.02-7.39-3.34-7.37-7.43.02-4.09,3.34-7.39,7.43-7.37,1.96,0,3.83.79,5.21,2.18,1.42,1.38,2.2,3.28,2.16,5.26ZM534.77,153.88c-2.22,2.24-2.22,5.84,0,8.08,1.05,1.08,2.5,1.68,4,1.66,3.15,0,5.71-2.56,5.7-5.71,0-3.15-2.55-5.7-5.7-5.7-1.51-.02-2.96.58-4,1.68ZM536.28,161.76v-7.55h2.13c.54-.01,1.09.07,1.6.24.43.13.8.39,1.06.76.27.4.4.88.38,1.36,0,.41-.11.82-.33,1.16-.2.35-.51.62-.89.77l1.9,3.32h-2.19l-1.9-3.47h0v3.41h-1.75ZM538.03,157.91c.27,0,.53-.04.79-.12.19-.06.36-.18.48-.35.11-.2.17-.42.17-.65.03-.31-.1-.62-.35-.82-.34-.15-.71-.22-1.09-.2v2.13Z"/>
    </g>
  </g>
  <g>
    <g>
      <path class="cls-1" d="M102.34,213.2h8.78c2.39,0,4.41.37,6.01,1.43s2.55,2.67,2.55,4.71c0,1.92-.98,3.72-2.99,4.5v.06c2.58.81,3.81,2.82,3.81,5.15,0,2.14-.94,3.84-2.55,4.96-1.61,1.12-3.81,1.64-6.36,1.64h-9.26v-22.44ZM110.91,222.19c1.57,0,2.46-.71,2.46-2.01,0-.65-.25-1.15-.69-1.46s-1.13-.5-2.14-.5h-1.76v3.97h2.14ZM113.39,230.09c.5-.37.72-.93.72-1.55,0-1.36-.94-2.14-2.61-2.14h-2.74v4.22h2.27c1.16,0,1.86-.16,2.36-.53Z"/>
      <path class="cls-1" d="M122.84,213.2h9.16c2.49,0,4.5.5,6.17,1.7,1.67,1.21,2.71,3.07,2.71,5.49,0,2.85-1.45,5.02-3.87,6.2l5.73,9.05h-7.21l-4.75-8.06h-1.51v8.06h-6.42v-22.44ZM131.34,223.02c1.13,0,1.76-.15,2.3-.53.54-.37.82-1.05.82-1.83s-.28-1.49-.82-1.86c-.54-.37-1.16-.53-2.3-.53h-2.08v4.74h2.08Z"/>
      <path class="cls-1" d="M143.9,213.2h6.49v22.44h-6.49v-22.44Z"/>
      <path class="cls-1" d="M159.61,218.59h-7.24v-5.39h20.97v5.39h-7.24v17.05h-6.49v-17.05Z"/>
      <path class="cls-1" d="M175.32,213.2h6.49v22.44h-6.49v-22.44Z"/>
      <path class="cls-1" d="M192.89,230.68c1.45,0,2.33-.5,2.33-1.58,0-.84-.57-1.24-1.92-1.67s-4.22-.99-5.98-2.14c-1.76-1.15-2.68-2.76-2.68-5.12,0-4.59,3.37-7.32,8.53-7.32,2.33,0,5.29.59,7.43,1.64v5.77c-2.74-1.49-5.67-2.11-7.21-2.11-1.39,0-2.17.5-2.17,1.46,0,.84.6,1.24,1.92,1.64,1.32.4,4.16.99,5.95,2.11,1.79,1.12,2.71,2.91,2.71,5.21,0,4.71-3.53,7.41-8.85,7.41-2.42,0-5.54-.56-7.87-1.7v-6.05c2.9,1.77,6.23,2.45,7.81,2.45Z"/>
      <path class="cls-1" d="M204.32,213.2h6.49v8.09h8.12v-8.09h6.48v22.44h-6.48v-8.96h-8.12v8.96h-6.49v-22.44Z"/>
      <path class="cls-1" d="M248.3,235.98c-7.56,0-12.66-4.96-12.66-11.5s5.35-11.63,12.75-11.63c2.33,0,4.56.5,6.33,1.39v6.11c-1.7-1.02-3.94-1.83-6.14-1.83-3.84,0-6.45,2.45-6.45,5.86s2.46,5.92,6.61,5.92c2.2,0,4.44-.77,6.3-1.92v6.08c-1.92,1.02-4.44,1.52-6.74,1.52Z"/>
      <path class="cls-1" d="M256.77,224.42c0-6.54,5.23-11.56,12.18-11.56s12.18,5.02,12.18,11.56-5.19,11.56-12.18,11.56-12.18-5.02-12.18-11.56ZM274.65,224.42c0-3.35-2.3-5.92-5.7-5.92s-5.7,2.57-5.7,5.92,2.3,5.92,5.7,5.92,5.7-2.57,5.7-5.92Z"/>
      <path class="cls-1" d="M283.94,213.2h6.49v17.05h9.51v5.39h-15.99v-22.44Z"/>
      <path class="cls-1" d="M308.46,213.2v12.18c0,1.61.35,2.79,1.07,3.6.72.78,1.76,1.27,3.12,1.27s2.39-.5,3.12-1.27c.72-.77,1.07-1.95,1.07-3.6v-12.18h6.23v12.74c0,2.67-.72,5.21-2.52,7.07-1.79,1.86-4.72,2.98-8.03,2.98s-6.23-1.12-8.03-2.98c-1.79-1.86-2.52-4.46-2.52-7.07v-12.74h6.49Z"/>
      <path class="cls-1" d="M326.47,213.2h6.23l5.89,8.18,5.86-8.18h6.17v22.44h-6.49v-7.32c0-1.77.03-3.75.06-5.3h-.06c-.94,1.43-1.98,2.91-2.99,4.31l-2.71,3.78-2.74-3.78c-1.04-1.43-2.05-2.88-2.99-4.31h-.06c.03,1.55.06,3.53.06,5.3v7.32h-6.23v-22.44Z"/>
      <path class="cls-1" d="M354.21,213.2h8.78c2.39,0,4.41.37,6.01,1.43s2.55,2.67,2.55,4.71c0,1.92-.98,3.72-2.99,4.5v.06c2.58.81,3.81,2.82,3.81,5.15,0,2.14-.94,3.84-2.55,4.96-1.61,1.12-3.81,1.64-6.36,1.64h-9.26v-22.44ZM362.77,222.19c1.57,0,2.46-.71,2.46-2.01,0-.65-.25-1.15-.69-1.46s-1.13-.5-2.14-.5h-1.76v3.97h2.14ZM365.26,230.09c.5-.37.72-.93.72-1.55,0-1.36-.94-2.14-2.61-2.14h-2.74v4.22h2.27c1.16,0,1.86-.16,2.36-.53Z"/>
      <path class="cls-1" d="M374.7,213.2h6.48v22.44h-6.48v-22.44Z"/>
      <path class="cls-1" d="M392.11,213.2h6.71l9.07,22.44h-7.05l-1.61-4.59h-7.81l-1.67,4.59h-6.71l9.07-22.44ZM397.56,226.34l-.76-2.14c-.44-1.27-.98-2.82-1.39-4.19h-.06c-.44,1.4-.98,2.95-1.45,4.25l-.76,2.08h4.41Z"/>
    </g>
    <g>
      <path class="cls-7" d="M111.6,242.73h-16.35v-36.62h15.87c4.01,0,7.25.85,9.9,2.59,3.65,2.4,5.75,6.28,5.75,10.64,0,1.33-.21,2.62-.61,3.82.92,1.75,1.43,3.75,1.43,5.88,0,4.38-2.04,8.31-5.59,10.78-2.78,1.93-6.28,2.91-10.4,2.91Z"/>
      <path class="cls-7" d="M142.73,242.73h-26.99v-36.62h16.25c4.11,0,7.49,1,10.33,3.05,3.58,2.6,5.64,6.69,5.64,11.23,0,2.64-.68,5.1-1.94,7.2l9.58,15.14h-12.88Z"/>
      <rect class="cls-7" x="136.81" y="206.11" width="20.67" height="36.62"/>
      <polygon class="cls-7" points="173.18 242.73 152.52 242.73 152.52 225.68 145.28 225.68 145.28 206.11 180.43 206.11 180.43 225.68 173.18 225.68 173.18 242.73"/>
      <rect class="cls-7" x="168.23" y="206.11" width="20.67" height="36.62"/>
      <path class="cls-7" d="M192.95,243.07c-3.79,0-7.91-.91-11-2.43l-3.96-1.95v-14.96c-.29-1.13-.44-2.32-.44-3.56s.15-2.54.44-3.71v-.86l.2.12c1.84-6.03,7.49-9.96,14.98-9.96,3.6,0,7.55.89,10.56,2.37l3.96,1.95v12.77c.78,1.73,1.2,3.66,1.2,5.71,0,8.54-6.55,14.5-15.94,14.5Z"/>
      <rect class="cls-7" x="197.23" y="206.11" width="35.27" height="36.62"/>
      <path class="cls-7" d="M248.3,243.07c-11.26,0-19.75-7.99-19.75-18.59s8.53-18.72,19.84-18.72c3.46,0,6.76.75,9.55,2.17l3.87,1.97v5.96l.32-.19v23.04l-3.76,2c-2.85,1.52-6.42,2.35-10.07,2.35ZM248.34,225.64h0Z"/>
      <path class="cls-7" d="M268.95,243.07c-10.81,0-19.27-8.19-19.27-18.65s8.47-18.65,19.27-18.65,19.27,8.19,19.27,18.65-8.47,18.65-19.27,18.65ZM267.56,224.42c.03.46.78,1.17,1.39,1.17s1.37-.71,1.39-1.17c-.02-.45-.77-1.16-1.39-1.16s-1.36.71-1.39,1.17Z"/>
      <polygon class="cls-7" points="307.02 242.73 276.85 242.73 276.85 206.11 297.51 206.11 297.51 223.16 307.02 223.16 307.02 242.73"/>
      <path class="cls-7" d="M312.52,243.07c-5.19,0-9.98-1.87-13.13-5.14-2.91-3.01-4.51-7.27-4.51-11.99v-19.83h35.27v19.83c0,4.79-1.56,8.94-4.51,11.99-3.15,3.27-7.94,5.14-13.13,5.14ZM315.56,225.63h0Z"/>
      <polygon class="cls-7" points="338.47 243.25 338.09 242.73 319.38 242.73 319.38 206.11 336.34 206.11 338.57 209.22 340.8 206.11 357.71 206.11 357.71 242.73 338.84 242.73 338.47 243.25"/>
      <path class="cls-7" d="M363.46,242.73h-16.35v-36.62h15.87c4.01,0,7.25.85,9.9,2.59,3.65,2.4,5.75,6.28,5.75,10.64,0,1.33-.21,2.62-.61,3.82.92,1.75,1.43,3.75,1.43,5.88,0,4.38-2.04,8.31-5.59,10.78-2.78,1.93-6.28,2.91-10.4,2.91Z"/>
      <rect class="cls-7" x="367.61" y="206.11" width="20.66" height="36.62"/>
      <polygon class="cls-7" points="418.39 242.73 395.8 242.73 395.27 241.21 394.72 242.73 372.53 242.73 387.33 206.11 403.6 206.11 418.39 242.73"/>
    </g>
    <g>
      <path class="cls-1" d="M102.34,213.2h8.78c2.39,0,4.41.37,6.01,1.43s2.55,2.67,2.55,4.71c0,1.92-.98,3.72-2.99,4.5v.06c2.58.81,3.81,2.82,3.81,5.15,0,2.14-.94,3.84-2.55,4.96-1.61,1.12-3.81,1.64-6.36,1.64h-9.26v-22.44ZM110.91,222.19c1.57,0,2.46-.71,2.46-2.01,0-.65-.25-1.15-.69-1.46s-1.13-.5-2.14-.5h-1.76v3.97h2.14ZM113.39,230.09c.5-.37.72-.93.72-1.55,0-1.36-.94-2.14-2.61-2.14h-2.74v4.22h2.27c1.16,0,1.86-.16,2.36-.53Z"/>
      <path class="cls-1" d="M122.84,213.2h9.16c2.49,0,4.5.5,6.17,1.7,1.67,1.21,2.71,3.07,2.71,5.49,0,2.85-1.45,5.02-3.87,6.2l5.73,9.05h-7.21l-4.75-8.06h-1.51v8.06h-6.42v-22.44ZM131.34,223.02c1.13,0,1.76-.15,2.3-.53.54-.37.82-1.05.82-1.83s-.28-1.49-.82-1.86c-.54-.37-1.16-.53-2.3-.53h-2.08v4.74h2.08Z"/>
      <path class="cls-1" d="M143.9,213.2h6.49v22.44h-6.49v-22.44Z"/>
      <path class="cls-1" d="M159.61,218.59h-7.24v-5.39h20.97v5.39h-7.24v17.05h-6.49v-17.05Z"/>
      <path class="cls-1" d="M175.32,213.2h6.49v22.44h-6.49v-22.44Z"/>
      <path class="cls-1" d="M192.89,230.68c1.45,0,2.33-.5,2.33-1.58,0-.84-.57-1.24-1.92-1.67s-4.22-.99-5.98-2.14c-1.76-1.15-2.68-2.76-2.68-5.12,0-4.59,3.37-7.32,8.53-7.32,2.33,0,5.29.59,7.43,1.64v5.77c-2.74-1.49-5.67-2.11-7.21-2.11-1.39,0-2.17.5-2.17,1.46,0,.84.6,1.24,1.92,1.64,1.32.4,4.16.99,5.95,2.11,1.79,1.12,2.71,2.91,2.71,5.21,0,4.71-3.53,7.41-8.85,7.41-2.42,0-5.54-.56-7.87-1.7v-6.05c2.9,1.77,6.23,2.45,7.81,2.45Z"/>
      <path class="cls-1" d="M204.32,213.2h6.49v8.09h8.12v-8.09h6.48v22.44h-6.48v-8.96h-8.12v8.96h-6.49v-22.44Z"/>
      <path class="cls-1" d="M248.3,235.98c-7.56,0-12.66-4.96-12.66-11.5s5.35-11.63,12.75-11.63c2.33,0,4.56.5,6.33,1.39v6.11c-1.7-1.02-3.94-1.83-6.14-1.83-3.84,0-6.45,2.45-6.45,5.86s2.46,5.92,6.61,5.92c2.2,0,4.44-.77,6.3-1.92v6.08c-1.92,1.02-4.44,1.52-6.74,1.52Z"/>
      <path class="cls-1" d="M256.77,224.42c0-6.54,5.23-11.56,12.18-11.56s12.18,5.02,12.18,11.56-5.19,11.56-12.18,11.56-12.18-5.02-12.18-11.56ZM274.65,224.42c0-3.35-2.3-5.92-5.7-5.92s-5.7,2.57-5.7,5.92,2.3,5.92,5.7,5.92,5.7-2.57,5.7-5.92Z"/>
      <path class="cls-1" d="M283.94,213.2h6.49v17.05h9.51v5.39h-15.99v-22.44Z"/>
      <path class="cls-1" d="M308.46,213.2v12.18c0,1.61.35,2.79,1.07,3.6.72.78,1.76,1.27,3.12,1.27s2.39-.5,3.12-1.27c.72-.77,1.07-1.95,1.07-3.6v-12.18h6.23v12.74c0,2.67-.72,5.21-2.52,7.07-1.79,1.86-4.72,2.98-8.03,2.98s-6.23-1.12-8.03-2.98c-1.79-1.86-2.52-4.46-2.52-7.07v-12.74h6.49Z"/>
      <path class="cls-1" d="M326.47,213.2h6.23l5.89,8.18,5.86-8.18h6.17v22.44h-6.49v-7.32c0-1.77.03-3.75.06-5.3h-.06c-.94,1.43-1.98,2.91-2.99,4.31l-2.71,3.78-2.74-3.78c-1.04-1.43-2.05-2.88-2.99-4.31h-.06c.03,1.55.06,3.53.06,5.3v7.32h-6.23v-22.44Z"/>
      <path class="cls-1" d="M354.21,213.2h8.78c2.39,0,4.41.37,6.01,1.43s2.55,2.67,2.55,4.71c0,1.92-.98,3.72-2.99,4.5v.06c2.58.81,3.81,2.82,3.81,5.15,0,2.14-.94,3.84-2.55,4.96-1.61,1.12-3.81,1.64-6.36,1.64h-9.26v-22.44ZM362.77,222.19c1.57,0,2.46-.71,2.46-2.01,0-.65-.25-1.15-.69-1.46s-1.13-.5-2.14-.5h-1.76v3.97h2.14ZM365.26,230.09c.5-.37.72-.93.72-1.55,0-1.36-.94-2.14-2.61-2.14h-2.74v4.22h2.27c1.16,0,1.86-.16,2.36-.53Z"/>
      <path class="cls-1" d="M374.7,213.2h6.48v22.44h-6.48v-22.44Z"/>
      <path class="cls-1" d="M392.11,213.2h6.71l9.07,22.44h-7.05l-1.61-4.59h-7.81l-1.67,4.59h-6.71l9.07-22.44ZM397.56,226.34l-.76-2.14c-.44-1.27-.98-2.82-1.39-4.19h-.06c-.44,1.4-.98,2.95-1.45,4.25l-.76,2.08h4.41Z"/>
    </g>
  </g>
</svg>